# xmcd
#
# Track frame offsets: 
#        150
#        18353
#        36590
#        51527
#        68877
#        83379
#        98177
#        111843
#        128749
#        147828
#        165552
#        178985
#        195385
#        209113
#        224165
#        249388
#        263518
#        279098
#        294953
#
# Disc length: 4141 seconds
#
# Revision: 2
# Processed by: cddbd v1.5.2PL0 Copyright (c) Steve Scherf et al.
# Submitted via: ExactAudioCopy v1.0b3
#
DISCID=1e102b13
DTITLE=Various Artist - Now That's What I Call Country, Vol. 9
DYEAR=2016
DGENRE=Country
TTITLE0=Luke Bryan - Strip It Down
TTITLE1=Sam Hunt - Take Your Time
TTITLE2=Carrie Underwood - Smoke Break
TTITLE3=Cam - Burning House
TTITLE4=Little Big Town - Girl Crush
TTITLE5=Chris Young - I'm Comin' Over
TTITLE6=Kenny Chesney - Save It for a Rainy Day
TTITLE7=Brad Paisley - Country Nation
TTITLE8=Dierks Bentley - Drunk on a Plane
TTITLE9=Granger Smith - Backroad Song
TTITLE10=Chris Janson - Buy Me a Boat
TTITLE11=Maddie and Tae - Girl in a Country Song
TTITLE12=Kelsea Ballerini - Dibs
TTITLE13=Jana Kramer - I Got the Boy
TTITLE14=Brothers Osborne - Stay a Little Longer
TTITLE15=Billy Currington - Don't It
TTITLE16=Old Dominion - Break Up with Him
TTITLE17=Rascal Flatts - I Like the Sound of That
TTITLE18=Clare Dunn - Tuxedo (Now What's Next)
EXTD=
EXTT0=
EXTT1=
EXTT2=
EXTT3=
EXTT4=
EXTT5=
EXTT6=
EXTT7=
EXTT8=
EXTT9=
EXTT10=
EXTT11=
EXTT12=
EXTT13=
EXTT14=
EXTT15=
EXTT16=
EXTT17=
EXTT18=
PLAYORDER=
